{"title":"VA - Het Beste Uit De Top 500 Van Het Foute Uur 2013 (2013) FLAC","uid":10120029,"size":2682678544,"categoryP":"audio","categoryS":"flac","magnet":"?xt=urn:btih:9421229185c4620e17a9dcf70fadd119e345d066&amp;dn=VA+-+Het+Beste+Uit+De+Top+500+Van+Het+Foute+Uur+2013+%282013%29+FLAC&amp;tr=udp%3A%2F%2Ftracker.openbittorrent.com%3A80&amp;tr=udp%3A%2F%2Fopen.demonii.com%3A1337&amp;tr=udp%3A%2F%2Ftracker.coppersurfer.tk%3A6969&amp;tr=udp%3A%2F%2Fexodus.desync.com%3A6969","seeders":2,"leechers":1,"uploader":"kxmp","files":105,"time":1399660993,"description":"It's 5 CDs\nPlaylist of cd1\n\nREM GENRE Pop\nREM DATE 2013\nREM DISCID 1810EA14\nREM COMMENT &quot;ExactAudioCopy v1.0b3&quot;\nCATALOG 0600753432082\nPERFORMER &quot;Various Artists&quot;\nTITLE &quot;Het Beste Uit De Top 500 Van Het Foute Uur Van Q-Music (USM 2013) CD1&quot;\nFILE &quot;01 - MC Hammer - U Can't Touch This [1990].wav&quot; WAVE\n  TRACK 01 AUDIO\n    TITLE &quot;U Can't Touch This [1990]&quot;\n    PERFORMER &quot;MC Hammer&quot;\n    ISRC USCA29000294\n    INDEX 01 00:00:00\n  TRACK 02 AUDIO\n    TITLE &quot;Bloed Zweet En Tranen [2001]&quot;\n    PERFORMER &quot;Andr?Hazes&quot;\n    ISRC NLA270200074\n    INDEX 00 04:14:57\nFILE &quot;02 - Andr?Hazes - Bloed Zweet En Tranen [2001].wav&quot; WAVE\n    INDEX 01 00:00:00\n  TRACK 03 AUDIO\n    TITLE &quot;Captain Jack [1995]&quot;\n    PERFORMER &quot;Captain Jack&quot;\n    ISRC DED710506011\n    INDEX 00 03:58:06\nFILE &quot;03 - Captain Jack - Captain Jack [1995].wav&quot; WAVE\n    INDEX 01 00:00:00\n  TRACK 04 AUDIO\n    TITLE &quot;Why Tell Me Why [1981]&quot;\n    PERFORMER &quot;Anita Meyer&quot;\n    ISRC NLA209800017\n    INDEX 00 04:07:06\nFILE &quot;04 - Anita Meyer - Why Tell Me Why [1981].wav&quot; WAVE\n    INDEX 01 00:00:00\n  TRACK 05 AUDIO\n    TITLE &quot;Barbie Girl [1997]&quot;\n    PERFORMER &quot;Aqua&quot;\n    ISRC DKBKA9700403\n    INDEX 00 03:31:62\nFILE &quot;05 - Aqua - Barbie Girl [1997].wav&quot; WAVE\n    INDEX 01 00:00:00\n  TRACK 06 AUDIO\n    TITLE &quot;Ademnood [1995]&quot;\n    PERFORMER &quot;Linda Roos &amp; Jessica&quot;\n    ISRC NLA959500136\n    INDEX 00 03:14:30\nFILE &quot;06 - Linda Roos &amp; Jessica - Ademnood [1995].wav&quot; WAVE\n    INDEX 01 00:00:00\n  TRACK 07 AUDIO\n    TITLE &quot;The Ketchup Song (Aserej? [2002]&quot;\n    PERFORMER &quot;Las Ketchup&quot;\n    ISRC ES5110204055\n    INDEX 00 03:53:63\nFILE &quot;07 - Las Ketchup - The Ketchup Song (Aserej? [2002].wav&quot; WAVE\n    INDEX 01 00:00:00\n  TRACK 08 AUDIO\n    TITLE &quot;Wonderfull Days [1994]&quot;\n    PERFORMER &quot;Charly Lownoise &amp; Mental Theo&quot;\n    ISRC NLC280710543\n    INDEX 00 03:30:55\nFILE &quot;08 - Charly Lownoise &amp; Mental Theo - Wonderfull Days [1994].wav&quot; WAVE\n    INDEX 01 00:00:00\n  TRACK 09 AUDIO\n    TITLE &quot;YMCA [1978]&quot;\n    PERFORMER &quot;Village People&quot;\n    ISRC FR22F7800350\n    INDEX 00 03:44:20\nFILE &quot;09 - Village People - YMCA [1978].wav&quot; WAVE\n    INDEX 01 00:00:00\n  TRACK 10 AUDIO\n    TITLE &quot;Que Si Que No [2000]&quot;\n    PERFORMER &quot;Jody Bernal&quot;\n    ISRC NLA950000060\n    INDEX 00 03:41:49\nFILE &quot;10 - Jody Bernal - Que Si Que No [2000].wav&quot; WAVE\n    INDEX 01 00:00:00\n  TRACK 11 AUDIO\n    TITLE &quot;Rosanne [2007]&quot;\n    PERFORMER &quot;Nick &amp; Simon&quot;\n    ISRC NLH590700042\n    INDEX 00 03:11:73\nFILE &quot;11 - Nick &amp; Simon - Rosanne [2007].wav&quot; WAVE\n    INDEX 01 00:00:00\n  TRACK 12 AUDIO\n    TITLE &quot;Because I Got High [2001]&quot;\n    PERFORMER &quot;Afroman&quot;\n    ISRC USUR10110846\n    INDEX 00 02:39:31\nFILE &quot;12 - Afroman - Because I Got High [2001].wav&quot; WAVE\n    INDEX 01 00:00:00\n  TRACK 13 AUDIO\n    TITLE &quot;The Final Countdown [1986]&quot;\n    PERFORMER &quot;Europe&quot;\n    ISRC USSM18600692\n    INDEX 00 03:16:73\nFILE &quot;13 - Europe - The Final Countdown [1986].wav&quot; WAVE\n    INDEX 01 00:00:00\n  TRACK 14 AUDIO\n    TITLE &quot;I Want It That Way [1998]&quot;\n    PERFORMER &quot;Backstreet Boys&quot;\n    ISRC USJI19910614\n    INDEX 00 05:08:07\nFILE &quot;14 - Backstreet Boys - I Want It That Way [1998].wav&quot; WAVE\n    INDEX 01 00:00:00\n  TRACK 15 AUDIO\n    TITLE &quot;Gypsy Woman (La Da Dee La Da Da) (She's Homeless) [1991]&quot;\n    PERFORMER &quot;Crystal Waters&quot;\n    ISRC USPR39102713\n    INDEX 00 03:33:10\nFILE &quot;15 - Crystal Waters - Gypsy Woman (La Da Dee La Da Da) (She's Homeless) [1991].wav&quot; WAVE\n    INDEX 01 00:00:00\n  TRACK 16 AUDIO\n    TITLE &quot;When The Rain Begins To Fall [1984]&quot;\n    PERFORMER &quot;Jermaine Jackson &amp; Pia Zadora&quot;\n    ISRC USAR10300661\n    INDEX 00 03:44:25\nFILE &quot;16 - Jermaine Jackson &amp; Pia Zadora - When The Rain Begins To Fall [1984].wav&quot; WAVE\n    INDEX 01 00:00:00\n  TRACK 17 AUDIO\n    TITLE &quot;Shine [2009]&quot;\n    PERFORMER &quot;Toppers&quot;\n    ISRC NLA950900004\n    INDEX 00 04:05:16\nFILE &quot;17 - Toppers - Shine [2009].wav&quot; WAVE\n    INDEX 01 00:00:00\n  TRACK 18 AUDIO\n    TITLE &quot;You Sexy Thing [1975]&quot;\n    PERFORMER &quot;Hot Chocolate&quot;\n    ISRC GBAYE7500013\n    INDEX 00 03:00:19\nFILE &quot;18 - Hot Chocolate - You Sexy Thing [1975].wav&quot; WAVE\n    INDEX 01 00:00:00\n  TRACK 19 AUDIO\n    TITLE &quot;Denis [1977]&quot;\n    PERFORMER &quot;Blondie&quot;\n    ISRC USCH30100036\n    INDEX 00 04:02:22\nFILE &quot;19 - Blondie - Denis [1977].wav&quot; WAVE\n    INDEX 01 00:00:00\n  TRACK 20 AUDIO\n    TITLE &quot;Het Kuikentje Piep [2012]&quot;\n    PERFORMER &quot;Pulcino Pio&quot;\n    ISRC ITBQ61200232\n    INDEX 00 02:15:33\nFILE &quot;20 - Pulcino Pio - Het Kuikentje Piep [2012].wav&quot; WAVE\n    INDEX 01 00:00:00\n","torrent":{"xt":"urn:btih:9421229185c4620e17a9dcf70fadd119e345d066","amp;dn":"VA+-+Het+Beste+Uit+De+Top+500+Van+Het+Foute+Uur+2013+%282013%29+FLAC","amp;tr":["udp%3A%2F%2Ftracker.openbittorrent.com%3A80","udp%3A%2F%2Fopen.demonii.com%3A1337","udp%3A%2F%2Ftracker.coppersurfer.tk%3A6969","udp%3A%2F%2Fexodus.desync.com%3A6969"],"infoHash":"9421229185c4620e17a9dcf70fadd119e345d066","infoHashBuffer":{"type":"Buffer","data":[148,33,34,145,133,196,98,14,23,169,220,247,15,173,209,25,227,69,208,102]},"announce":[],"urlList":[]}}